<svg width="22" height="21" viewBox="0 0 22 21" fill="none" xmlns="http://www.w3.org/2000/svg">
<path d="M6.625 9.66675H8.375V11.3334H6.625V9.66675ZM6.625 13.0001H8.375V14.6667H6.625V13.0001ZM10.125 9.66675H11.875V11.3334H10.125V9.66675ZM10.125 13.0001H11.875V14.6667H10.125V13.0001ZM13.625 9.66675H15.375V11.3334H13.625V9.66675ZM13.625 13.0001H15.375V14.6667H13.625V13.0001Z" fill="#F5F5F5"/>
<path d="M4.875 18.8334H17.125C18.0901 18.8334 18.875 18.0859 18.875 17.1667V5.50008C18.875 4.58091 18.0901 3.83341 17.125 3.83341H15.375V2.16675H13.625V3.83341H8.375V2.16675H6.625V3.83341H4.875C3.90987 3.83341 3.125 4.58091 3.125 5.50008V17.1667C3.125 18.0859 3.90987 18.8334 4.875 18.8334ZM17.125 7.16675L17.1259 17.1667H4.875V7.16675H17.125Z" fill="#F5F5F5" stroke="#F5F5F5" stroke-width="0.25"/>
</svg>
