<svg width="80" height="84" viewBox="0 0 80 84" fill="none" xmlns="http://www.w3.org/2000/svg">
<path d="M28.2449 12.5341C27.1023 12.1679 25.9981 11.8383 24.9323 11.5453C24.3961 11.3973 23.8648 11.2588 23.3486 11.1298C-6.64092 3.67363 -5.81391 27.0165 16.177 44.2454C16.177 44.2454 2.88119 27.8285 9.48649 22.4024C11.5413 20.7163 15.9315 20.1383 21.7099 20.764C22.6654 20.8691 23.6594 21.0045 24.6918 21.17C33.8179 22.6746 48.3114 28.1247 59.8181 35.1557L62.4441 32.0653C54.1098 25.0247 41.235 16.7422 28.2449 12.5341Z" fill="#EE9021"/>
<path d="M0.00408467 63.8673C-0.241484 64.0441 10.6137 64.0345 24.972 60.2754C24.571 59.2675 24.1901 58.2549 23.8343 57.2471C16.2311 60.4433 8.21846 62.6693 0.00408467 63.8673Z" fill="#F5B41C"/>
<path d="M67.8572 37.2725C67.1856 37.817 66.5492 38.5621 65.8125 39.1162C71.056 43.2447 75.8101 47.9072 79.9902 53.0207C80.2408 53.1353 76.0461 45.8893 67.8572 37.2725Z" fill="#EE9021"/>
<path d="M43.8302 14.8848C43.8302 14.8848 65.3801 11.8612 67.0941 20.0052C67.6404 22.5702 65.9665 26.5729 62.4734 31.1488C61.7016 32.1662 60.8346 33.2075 59.8875 34.2727C54.0239 40.8261 42.5372 48.5593 31.1709 54.3675C31.8725 55.7288 32.3737 56.7988 33.1004 58.0407C43.3391 54.5395 57.0909 48.8745 66.9487 40.4248C67.4148 40.0236 67.866 39.6272 68.307 39.2307C68.9752 38.6193 69.6233 38.0127 70.2514 37.4109C92.3576 15.8783 70.492 4.9735 43.8302 14.8848Z" fill="#F5B41C"/>
<path d="M26.8504 0.00584898C26.7902 -0.180435 25.0612 4.09456 23.5176 11.1781C24.0187 11.3071 24.5599 11.4408 25.1012 11.5889C25.4086 7.69463 25.9931 3.82471 26.8504 0.00584898Z" fill="#958257"/>
<path d="M59.8677 54.0896C59.8677 54.0896 55.257 74.3612 46.6471 73.0381C42.5576 72.4123 37.0397 66.1455 32.5092 56.4683C31.8978 55.1691 31.3081 53.8094 30.7401 52.3892C26.7906 42.3816 24.6094 31.8192 24.2852 21.1316C23.2562 20.9628 22.2639 20.8275 21.3084 20.7256C20.1156 30.4124 19.9702 42.5638 23.1476 55.1548C23.4082 56.1865 23.6888 57.2278 23.9995 58.2691C24.7312 60.7528 25.5982 63.2462 26.6206 65.7348C40.0467 98.4635 60.1984 82.6389 59.8677 54.0896Z" fill="#94805A"/>
</svg>
